HIERARCHY
ROOT root
{
	OFFSET	0	13.1	24.9
	CHANNELS 6  Xposition Yposition Zposition Xrotation Yrotation Zrotation
	JOINT spine_1
	{
		OFFSET	0	9.99999	0
		CHANNELS 3  Xrotation Yrotation Zrotation
		JOINT spine_2
		{
			OFFSET	0	112	-10
			CHANNELS 3  Xrotation Yrotation Zrotation
			JOINT spine_3
			{
				OFFSET	0	206.5	19.3
				CHANNELS 3  Xrotation Yrotation Zrotation
				JOINT spine_4
				{
					OFFSET	0	110.4	14.6
					CHANNELS 3  Xrotation Yrotation Zrotation
					JOINT neck_1
					{
						OFFSET	0	71.8	-50.3
						CHANNELS 3  Xrotation Yrotation Zrotation
						JOINT neck_2
						{
							OFFSET	0	86.2	-25.8
							CHANNELS 3  Xrotation Yrotation Zrotation
							JOINT head_ee
							{
								OFFSET	0	179.8	-8.7
								CHANNELS 3  Xrotation Yrotation Zrotation
								End Site
								{
									OFFSET	1	0	0
								}
							}
						}
					}
					JOINT left_clavicle
					{
						OFFSET	-43.2	22.4	-70.8
						CHANNELS 3  Xrotation Yrotation Zrotation
						JOINT left_shoulder
						{
							OFFSET	-93.9	-5.79999	48.7
							CHANNELS 3  Xrotation Yrotation Zrotation
							JOINT left_elbow
							{
								OFFSET	-291.4	-30.8	15.2
								CHANNELS 3  Xrotation Yrotation Zrotation
								JOINT left_lowarm_twist
								{
									OFFSET	-110.7	-3.89999	13.6
									CHANNELS 3  Xrotation Yrotation Zrotation
									JOINT left_hand
									{
										OFFSET	-110.7	-3.89999	13.6
										CHANNELS 3  Xrotation Yrotation Zrotation
										JOINT left_ee
										{
											OFFSET	-80.8	-5.10001	12.1
											CHANNELS 3  Xrotation Yrotation Zrotation
											End Site
											{
												OFFSET	1	0	0
											}
										}
									}
								}
							}
						}
					}
					JOINT right_clavicle
					{
						OFFSET	43.2	22.4	-70.8
						CHANNELS 3  Xrotation Yrotation Zrotation
						JOINT right_shoulder
						{
							OFFSET	93.9	-5.79999	48.7
							CHANNELS 3  Xrotation Yrotation Zrotation
							JOINT right_elbow
							{
								OFFSET	291.4	-30.8	15.2
								CHANNELS 3  Xrotation Yrotation Zrotation
								JOINT right_lowarm_twist
								{
									OFFSET	110.7	-3.89999	13.6
									CHANNELS 3  Xrotation Yrotation Zrotation
									JOINT right_hand
									{
										OFFSET	110.7	-3.89999	13.6
										CHANNELS 3  Xrotation Yrotation Zrotation
										JOINT right_ee
										{
											OFFSET	80.8	-5.10001	12.1
											CHANNELS 3  Xrotation Yrotation Zrotation
											End Site
											{
												OFFSET	1	0	0
											}
										}
									}
								}
							}
						}
					}
				}
			}
		}
	}
	JOINT left_hip
	{
		OFFSET	-82.8	-127.5	0.300001
		CHANNELS 3  Xrotation Yrotation Zrotation
		JOINT left_knee
		{
			OFFSET	-28.2	-396.7	2.2
			CHANNELS 3  Xrotation Yrotation Zrotation
			JOINT left_ankle
			{
				OFFSET	-11.7	-411.3	35.4
				CHANNELS 3  Xrotation Yrotation Zrotation
				JOINT left_toes
				{
					OFFSET	0	-60	-88.6
					CHANNELS 3  Xrotation Yrotation Zrotation
					JOINT left_foot_ee
					{
						OFFSET	-22.5	-16.5	-42.2
						CHANNELS 3  Xrotation Yrotation Zrotation
						End Site
						{
							OFFSET	1	0	0
						}
					}
				}
			}
		}
	}
	JOINT right_hip
	{
		OFFSET	82.8	-127.5	0.300001
		CHANNELS 3  Xrotation Yrotation Zrotation
		JOINT right_knee
		{
			OFFSET	28.2	-396.7	2.2
			CHANNELS 3  Xrotation Yrotation Zrotation
			JOINT right_ankle
			{
				OFFSET	11.7	-411.3	35.4
				CHANNELS 3  Xrotation Yrotation Zrotation
				JOINT right_toes
				{
					OFFSET	0	-60	-88.6
					CHANNELS 3  Xrotation Yrotation Zrotation
					JOINT right_foot_ee
					{
						OFFSET	22.5	-16.5	-42.2
						CHANNELS 3  Xrotation Yrotation Zrotation
						End Site
						{
							OFFSET	1	0	0
						}
					}
				}
			}
		}
	}
}
MOTION
Frames: 8
Frame Time: 0.02
1176.61500073 728.352 -1732.82670247 -39.8174154513 53.0516490735 34.4053483319 10.9361 0.212832 0.26697 10.9361 0.195413 0.279972 10.937 0.189531 0.283987 10.937 0.232002 0.25049 -26.0004 -9.57731 -4.03596 -26.5724 -16.8181 -8.85969 -0.0 0.0 -0.0 4.91755 16.2865 9.67087 -55.8287 -48.1822 41.7886 0.310696 -8.7499 0.0237702 79.3439 -3.7631 -8.57235 3.34502 -7.46466 19.7978 -0.0 0.0 -0.0 6.58064 -14.2737 -12.4583 -34.674 38.0076 -51.1683 0.979815 25.8901 -0.225224 21.8686 -0.245374 2.76583 -2.18362 25.6231 25.6536 0.0 0.0 0.0 44.7754 -21.8419 10.8778 -49.2483 -1.15734 7.24061 18.5088 22.5014 -2.63673 8.49599 -0.0 -0.0 -0.0 0.0 -0.0 37.7035 -0.287559 -6.07268 -17.699 -0.315931 -2.68691 37.5756 -25.2151 4.93552 -14.2951 0.0 0.0 0.0 0.0 0.0 
1172.47105569 730.359 -1745.12855788 -38.8756619807 53.7810820122 33.5391909529 10.4623 0.293589 0.476599 10.4624 0.262668 0.494315 10.4644 0.248175 0.501747 10.4642 0.324301 0.456257 -25.9328 -9.44144 -3.16213 -26.529 -16.9033 -7.97137 -0.0 0.0 -0.0 4.75503 15.9374 9.41425 -55.799 -48.0839 42.1348 0.310904 -8.75568 0.0238019 79.4526 -3.77557 -8.57861 3.27886 -7.91605 19.1217 -0.0 0.0 -0.0 7.24546 -14.0698 -13.5914 -33.8767 37.5535 -50.2812 0.89581 23.9293 -0.189837 21.061 -0.255192 2.66314 -2.07766 25.8492 24.9879 0.0 0.0 0.0 48.7331 -23.2072 9.57996 -51.6025 -1.36458 7.53808 17.8826 23.4774 -2.56613 8.37527 -0.0 -0.0 -0.0 0.0 -0.0 36.4971 -0.386684 -6.01363 -19.0895 -0.305361 -2.89999 38.1493 -25.2633 4.99481 -14.3108 0.0 0.0 0.0 0.0 0.0 
1165.09494918 725.581 -1757.54897382 -38.9056248687 54.8936387375 33.7051990545 10.3082 0.412494 0.584988 10.3083 0.374434 0.610049 10.3119 0.354884 0.621626 10.3117 0.448603 0.55778 -25.2669 -9.968 -3.08327 -25.919 -17.9253 -8.07252 -0.0 0.0 -0.0 4.4827 13.3818 8.97184 -55.2434 -46.7654 44.9936 0.253427 -7.15568 0.0158459 79.5358 -3.78513 -8.58339 3.20849 -7.85708 18.6467 -0.0 0.0 -0.0 8.95388 -12.1891 -16.7177 -33.6716 37.475 -47.0843 0.716075 19.5308 -0.123244 20.6065 -0.260081 2.60529 -1.8753 25.0992 23.2966 0.0 0.0 0.0 56.2889 -23.2473 11.2219 -52.9843 -1.49189 7.70868 17.4216 24.6704 -2.52018 8.08896 -0.0 -0.0 -0.0 0.0 -0.0 32.9061 -0.350361 -5.76331 -19.8049 -0.297909 -3.00951 38.4022 -25.0517 5.01338 -14.2515 0.0 0.0 0.0 0.0 0.0 
1141.67291581 728.476 -1763.28056729 -39.7259820444 56.0752202734 34.1932623264 10.1321 0.576595 0.70545 10.1323 0.530538 0.740709 10.1387 0.504489 0.75869 10.1384 0.617976 0.669498 -24.9531 -10.2669 -2.83151 -25.6506 -18.5942 -7.94911 -0.0 0.0 -0.0 4.29119 11.5065 8.62887 -55.0818 -45.6298 47.006 0.213649 -6.04157 0.0112746 79.6026 -3.7928 -8.58721 3.14209 -7.68328 18.2524 -0.0 0.0 -0.0 10.1509 -9.92753 -19.1488 -33.7455 37.5036 -44.1032 0.596635 16.4655 -0.0863251 20.0001 -0.265889 2.52804 -1.68368 24.5507 21.759 0.0 0.0 0.0 65.1658 -22.3622 13.7152 -53.4793 -1.5385 7.76906 17.0558 25.7857 -2.48623 7.89238 -0.0 -0.0 -0.0 0.0 -0.0 30.2266 -0.452867 -7.17814 -20.0985 -0.294455 -3.05443 38.4846 -23.9945 4.98938 -14.2316 0.0 0.0 0.0 0.0 0.0 
1139.22882996 728.476 -1761.30878715 -40.1950796603 56.4491165387 34.7573567869 10.1321 0.576595 0.70545 10.1323 0.530538 0.740709 10.1387 0.504489 0.75869 10.1384 0.617976 0.669498 -24.9531 -10.2669 -2.83151 -25.6506 -18.5942 -7.94911 -0.0 0.0 -0.0 4.29119 11.5065 8.62887 -55.0818 -45.6298 47.006 0.213649 -6.04157 0.0112746 79.6026 -3.7928 -8.58721 3.14209 -7.68328 18.2524 -0.0 0.0 -0.0 10.1509 -9.92753 -19.1488 -33.7455 37.5036 -44.1032 0.596635 16.4655 -0.0863251 20.0001 -0.265889 2.52804 -1.68368 24.5507 21.759 0.0 0.0 0.0 65.1658 -22.3622 13.7152 -53.4793 -1.5385 7.76906 17.0558 25.7857 -2.48623 7.89238 -0.0 -0.0 -0.0 0.0 -0.0 30.2266 -0.452867 -7.17814 -20.0985 -0.294455 -3.05443 38.4846 -23.9945 4.98938 -14.2316 0.0 0.0 0.0 0.0 0.0 
1125.63986418 728.902 -1773.88135604 -43.3864469255 56.6258852044 37.9778743414 10.0964 0.481049 0.543336 10.0964 0.445501 0.572844 10.1007 0.424932 0.588264 10.1006 0.512503 0.513773 -24.3213 -10.8825 -2.20162 -25.1197 -20.0271 -7.58986 -0.0 0.0 -0.0 4.51245 8.90155 8.97177 -54.7988 -44.4714 49.5885 0.189292 -5.35708 0.00885574 79.294 -3.75739 -8.56947 2.95669 -6.96129 17.2589 -0.0 0.0 -0.0 11.2878 -6.73303 -21.7167 -33.4032 37.9487 -41.9199 0.50416 14.0227 -0.0620051 18.5816 -0.27628 2.34716 -1.37888 24.1671 19.5116 0.0 0.0 0.0 70.6369 -23.1481 14.8122 -51.2738 -1.33491 7.49705 17.9127 26.4901 -2.61347 8.93023 -0.0 -0.0 -0.0 0.0 -0.0 29.6705 -2.09692 -7.17332 -16.3 -0.321344 -2.47234 38.2097 -22.965 4.93311 -14.7809 0.0 0.0 0.0 0.0 0.0 
1111.31103103 726.454 -1775.21283205 -43.0438195574 56.0284878688 37.4345192861 10.1175 0.501092 0.717754 10.1177 0.454405 0.748183 10.1231 0.427928 0.763635 10.1227 0.543157 0.686473 -24.4136 -11.0917 -2.16257 -25.2542 -20.4484 -7.68904 -0.0 0.0 -0.0 4.60982 7.89868 9.12775 -54.5845 -44.0955 50.2512 0.189637 -5.36678 0.00888799 79.2216 -3.74909 -8.56528 2.82787 -6.44884 16.5744 -0.0 0.0 -0.0 11.2252 -5.2436 -21.757 -32.8332 38.3496 -40.998 0.502506 13.9785 -0.0616048 17.7832 -0.280157 2.24526 -1.21295 24.7981 18.6217 0.0 0.0 0.0 71.7041 -23.8519 14.874 -48.5129 -1.09514 7.14599 16.9057 26.6366 -2.47823 8.81925 -0.0 -0.0 -0.0 0.0 -0.0 28.9891 -2.63296 -7.16987 -14.9019 -0.321518 -2.25784 38.7718 -22.5138 4.97563 -14.7773 0.0 0.0 0.0 0.0 0.0 
1098.01437301 723.467 -1781.56358084 -43.6424810785 56.0966171892 37.9746955092 10.1009 0.514526 0.826628 10.1011 0.460885 0.857691 10.1073 0.430335 0.873418 10.1067 0.56287 0.794499 -24.8668 -11.3548 -2.23667 -25.7753 -20.9324 -7.99996 -0.0 0.0 -0.0 4.60667 7.66403 9.11783 -54.1846 -43.8377 51.0805 0.190689 -5.39639 0.00898668 79.17 -3.74319 -8.56229 2.73218 -6.00749 16.0927 -0.0 0.0 -0.0 11.1127 -3.82991 -21.6689 -32.0 38.8191 -40.1322 0.525283 14.5856 -0.0672239 17.2256 -0.282023 2.17407 -1.12118 25.2722 18.1822 0.0 0.0 0.0 72.5223 -24.4231 15.0673 -46.3733 -0.921181 6.86635 16.1719 26.4562 -2.37456 8.59987 -0.0 -0.0 -0.0 0.0 -0.0 28.5888 -3.04519 -7.48345 -13.9096 -0.318466 -2.10562 39.1632 -22.1941 5.0047 -14.7751 0.0 0.0 0.0 0.0 0.0 
